<?xml version="1.0" standalone="no"?>
<!DOCTYPE svg PUBLIC "-//W3C//DTD SVG 20010904//EN"
 "http://www.w3.org/TR/2001/REC-SVG-20010904/DTD/svg10.dtd">
<svg version="1.0" xmlns="http://www.w3.org/2000/svg"
 width="648.000000pt" height="1280.000000pt" viewBox="0 0 648.000000 1280.000000"
 preserveAspectRatio="xMidYMid meet">
<metadata>
Created by potrace 1.15, written by Peter Selinger 2001-2017
</metadata>
<g transform="translate(0.000000,1280.000000) scale(0.100000,-0.100000)"
fill="#000000" stroke="none">
<path d="M2095 12781 c-22 -10 -55 -35 -74 -56 -72 -83 -60 16 -228 -1759
-133 -1409 -156 -1633 -171 -1644 -9 -7 -81 -55 -160 -107 -648 -425 -1123
-1070 -1338 -1820 -87 -301 -118 -534 -118 -885 0 -285 12 -413 60 -645 181
-871 703 -1621 1459 -2098 l90 -57 166 -1750 c123 -1294 171 -1761 183 -1794
9 -24 35 -65 57 -89 73 -83 -22 -78 1280 -75 l1155 3 43 28 c45 30 95 100 112
157 8 27 289 3448 289 3522 0 11 43 47 118 96 384 258 687 563 937 942 266
404 430 852 502 1370 24 174 24 603 0 785 -50 372 -147 699 -306 1022 -175
356 -372 626 -663 908 -189 184 -288 261 -590 460 -13 8 -38 296 -146 1653
-125 1563 -133 1646 -155 1695 -32 70 -69 111 -120 136 -43 21 -49 21 -1193
21 -1090 0 -1151 -1 -1189 -19z m1301 -3342 c1068 -63 1996 -677 2472 -1634
193 -388 287 -772 299 -1220 21 -825 -289 -1586 -883 -2166 -329 -320 -690
-542 -1124 -691 -426 -146 -951 -186 -1409 -107 -1224 209 -2193 1177 -2400
2399 -162 951 155 1922 846 2591 517 500 1161 786 1869 828 71 5 134 9 140 10
7 0 92 -4 190 -10z"/>
<path d="M2910 9174 c-623 -80 -1198 -375 -1631 -839 -302 -324 -531 -745
-639 -1175 -198 -793 -25 -1621 477 -2283 108 -142 362 -393 508 -503 379
-283 769 -445 1255 -521 156 -24 565 -24 723 0 483 74 890 245 1270 534 131
100 390 359 490 490 294 387 471 816 538 1303 18 125 18 535 0 660 -66 478
-237 904 -508 1267 -445 597 -1098 977 -1833 1068 -153 19 -501 18 -650 -1z
m675 -118 c502 -73 944 -275 1329 -606 425 -366 731 -886 840 -1430 46 -227
61 -558 36 -785 -32 -294 -115 -574 -250 -850 -325 -661 -922 -1154 -1635
-1350 -213 -58 -345 -77 -593 -82 -244 -6 -372 4 -568 43 -1089 216 -1934
1137 -2053 2236 -16 142 -14 458 4 591 54 411 189 773 416 1112 439 656 1149
1072 1944 1139 94 8 430 -4 530 -18z"/>
<path d="M4727 7615 c-16 -8 -355 -240 -753 -515 -398 -275 -728 -501 -733
-503 -4 -1 -232 151 -506 338 -275 187 -513 349 -530 359 -42 27 -125 27 -162
0 -43 -32 -65 -68 -70 -117 -11 -91 -19 -83 610 -512 314 -215 584 -396 600
-402 40 -18 82 -16 120 3 17 9 306 207 642 439 335 231 689 476 786 543 191
132 209 151 209 234 0 106 -121 181 -213 133z"/>
</g>
</svg>
